# xmcd
#
# Track frame offsets:
#	150
#	18543
#	30139
#	48552
#	73416
#	93969
#	116341
#	133233
#	154602
#	175917
#	193357
#	209853
#	224224
#	242654
#	259193
#
# Disc length: 3836 seconds
#
# Revision: 1
# Processed by: cddbd v1.5.2PL0 Copyright (c) Steve Scherf et al.
# Submitted via: dBpowerAMP V4.0
#
DISCID=e90efa0f
DTITLE=Vince Gill - Guitar Slinger
DYEAR=2011
DGENRE=Country
TTITLE0=Guitar Slinger
TTITLE1=All Nighter Comin'
TTITLE2=Tell Me Fool
TTITLE3=Threaten Me with Heaven
TTITLE4=When the Lady Sings the Blues
TTITLE5=Who Wouldn't Fall in Love with You
TTITLE6=When Lonely Comes Around
TTITLE7=True Love
TTITLE8=Bread and Water
TTITLE9=Billy Paul
TTITLE10=The Old Lucky Diamond Motel
TTITLE11=Lipstick Everywhere
TTITLE12=One More Thing I Wish I'd Said
TTITLE13=If I Die
TTITLE14=Buttermilk John
EXTD=Vince Gill Guitar Slinger Deluxe Edition UPC 6-02527-80132-2
EXTT0=
EXTT1=
EXTT2=
EXTT3=
EXTT4=
EXTT5=
EXTT6=
EXTT7=
EXTT8=
EXTT9=
EXTT10=
EXTT11=
EXTT12=
EXTT13=
EXTT14=
PLAYORDER=
